<svg xmlns="http://www.w3.org/2000/svg" viewBox="0 0 512 512">
  <path fill="#264DE4" d="M71.357,460.819L30.272,0h451.456l-41.129,460.746L255.724,512"/>
  <path fill="#2965F1" d="M405.388,431.408l35.148-393.73H256v435.146"/>
  <path fill="#EBEBEB" d="M124.46,208.59l5.065-56.68h126.475v-55.77H76.109l1.35,14.766l13.396,150.096h165.245v-52.412H124.46z M131.399,355.504l-8.098-90.576h126.699v-52.412H85.832l1.35,14.766l13.373,150.096h155.445v-52.413h-69.053z"/>
  <path fill="#FFF" d="M255.805,208.59v52.412h64.266l-5.066,58.133l-59.2,16.698v52.413l109.678-30.262l.825-8.917l12.572-140.963l1.35-14.766h-14.766L255.805,208.59z M255.805,96.14v55.77h126.451l1.119-11.382l2.537-28.469l1.349-15.919H255.805z"/>
</svg> 