<?xml version="1.0" encoding="UTF-8"?>
<svg width="256" height="256" viewBox="0 0 256 256" fill="none" xmlns="http://www.w3.org/2000/svg">
    <rect width="256" height="256" rx="32" fill="#F7DF1E"/>
    <path d="M67.312 213.932L86.902 202.076C91.459 210.189 95.686 217.042 104.511 217.042C112.979 217.042 118.423 213.711 118.423 199.919V117.667H142.089V200.585C142.089 225.577 127.312 236.906 105.464 236.906C85.686 236.906 73.788 227.186 67.312 213.932" fill="#000"/>
    <path d="M152.381 211.354L171.969 200.013C178.659 210.842 187.374 218.477 201.485 218.477C213.583 218.477 221.564 212.13 221.564 203.58C221.564 193.378 213.372 189.847 199.482 184.09L192.087 181.018C170.59 172.468 156.575 161.829 156.575 136.837C156.575 113.943 174.123 96.832 200.27 96.832C218.89 96.832 232.213 103.407 241.714 121.405L222.916 133.424C217.503 124.007 211.686 120.477 200.27 120.477C188.625 120.477 181.497 127.715 181.497 136.837C181.497 147.916 188.625 151.447 201.597 156.767L208.993 159.839C234.674 170.047 248.689 180.248 248.689 205.899C248.689 233.542 226.765 243 202.518 243C178.812 243 161.376 233.984 152.381 211.354" fill="#000"/>
</svg> 