<svg xmlns="http://www.w3.org/2000/svg" viewBox="0 0 512 512">
  <path fill="#539E43" d="M255.917 512c-4.78 0-9.562-1.253-13.75-3.755l-43.75-25.886c-6.532-3.755-3.358-5.008-1.192-5.633 8.72-3.008 10.47-3.633 19.812-9.016.938-.626 2.19-.313 3.128.313l33.595 19.937c1.253.626 2.82.626 3.755 0l131.25-75.75c1.253-.626 1.88-1.88 1.88-3.13V158.73c0-1.253-.627-2.507-1.88-3.13L257.797 79.85c-1.253-.626-2.82-.626-3.755 0L122.792 155.6c-1.253.626-1.88 2.19-1.88 3.13v151.5c0 1.253.627 2.507 1.88 3.13l35.938 20.875c19.5 9.687 31.407-1.567 31.407-13.437V171.855c0-2.19 1.567-3.755 3.755-3.755h16.875c2.19 0 3.755 1.567 3.755 3.755v149.62c0 26.345-14.375 41.345-39.375 41.345-7.657 0-13.75 0-30.625-8.345l-34.687-19.937C102.042 330.605 96 321.23 96 311.23V159.73c0-9.687 5.417-19.062 14.062-23.75L241.542 60.23c8.407-4.687 19.5-4.687 27.907 0l131.25 75.75c8.72 5 14.063 14.062 14.063 23.75v151.5c0 9.687-5.417 19.062-14.063 23.75l-131.25 75.75c-4.062 2.502-8.845 3.755-13.532 3.755zm40.625-104.375c-57.657 0-69.532-26.345-69.532-48.75 0-2.19 1.567-3.755 3.755-3.755h17.187c1.88 0 3.442 1.253 3.442 3.13 2.507 16.562 9.687 24.907 45.312 24.907 27.907 0 39.688-6.22 39.688-21.095 0-8.407-3.442-14.687-46.562-19.062-36.25-3.755-58.282-11.567-58.282-40.407 0-26.657 22.657-42.595 60.625-42.595 42.595 0 63.625 14.687 66.25 46.562.313 1.253-.313 2.19-1.253 3.13-.938.626-1.88 1.253-2.82 1.253h-17.187c-1.88 0-3.442-1.253-3.755-2.82-4.062-18.437-14.062-24.282-41.562-24.282-30.625 0-34.062 10.625-34.062 18.75 0 9.687 4.062 12.5 45 18.125 40.625 5.313 59.845 13.125 59.845 41.032 0 28.907-24.282 45.312-66.562 45.312z"/>
</svg> 