<svg xmlns="http://www.w3.org/2000/svg" viewBox="0 0 512 512">
  <circle cx="256" cy="256" r="256" fill="#E95420"/>
  <path fill="#FFF" d="M86.4,256c0,23.6,19.2,42.8,42.8,42.8s42.8-19.2,42.8-42.8c0-23.6-19.2-42.8-42.8-42.8S86.4,232.4,86.4,256z M372.8,298.8c20.4,11.8,46.7,4.8,58.5-15.6c11.8-20.4,4.8-46.7-15.6-58.5c-20.4-11.8-46.7-4.8-58.5,15.6C345.4,260.7,352.4,287,372.8,298.8z M372.8,213.2c20.4-11.8,27.4-38.1,15.6-58.5c-11.8-20.4-38.1-27.4-58.5-15.6c-20.4,11.8-27.4,38.1-15.6,58.5C325.9,218,352.4,225,372.8,213.2z M256,340.8c-46.8,0-84.8-38-84.8-84.8s38-84.8,84.8-84.8s84.8,38,84.8,84.8S302.8,340.8,256,340.8z"/>
</svg> 